<svg width="101" height="101" viewBox="0 0 101 101" fill="none" xmlns="http://www.w3.org/2000/svg">
<path fill-rule="evenodd" clip-rule="evenodd" d="M101 50.5C101 78.3904 78.3904 101 50.5 101C22.6096 101 0 78.3904 0 50.5C0 22.6096 22.6096 0 50.5 0C78.3904 0 101 22.6096 101 50.5ZM96 51C96 75.8528 75.8528 96 51 96C26.1472 96 6 75.8528 6 51C6 26.1472 26.1472 6 51 6C75.8528 6 96 26.1472 96 51ZM42 73.5C42 74.8807 43.1193 76 44.5 76C45.8807 76 47 74.8807 47 73.5V65H54.5C55.8807 65 57 63.8807 57 62.5C57 61.1193 55.8807 60 54.5 60H47V56H54.5C54.6712 56 54.8384 55.9828 55 55.95V56C63.2843 56 70 49.2843 70 41C70 32.7157 63.2843 26 55 26V26.05C54.8384 26.0172 54.6712 26 54.5 26H44.5C43.1193 26 42 27.1193 42 28.5V51H37.5C36.1193 51 35 52.1193 35 53.5C35 54.8807 36.1193 56 37.5 56H42V60H37.5C36.1193 60 35 61.1193 35 62.5C35 63.8807 36.1193 65 37.5 65H42V73.5ZM55 30.95C54.8384 30.9828 54.6712 31 54.5 31H47V51H54.5C54.6712 51 54.8384 51.0172 55 51.05V51C60.5229 51 65 46.5229 65 41C65 35.4772 60.5229 31 55 31V30.95Z" fill="#FFD152"/>
</svg>
