<svg width="190" height="220" viewBox="0 0 190 220" fill="none" xmlns="http://www.w3.org/2000/svg">
<path d="M0 0H190V180C190 202.091 172.091 220 150 220H40C17.9086 220 0 202.091 0 180V0Z" fill="white"/>
<path d="M30 37H160.004" stroke="black" stroke-width="15"/>
<path d="M95 44L95 170" stroke="black" stroke-width="15"/>
<path fill-rule="evenodd" clip-rule="evenodd" d="M102.5 60H40C34.4772 60 30 64.4772 30 70V180C30 185.523 34.4772 190 40 190H150C155.523 190 160 185.523 160 180V160H145V175H45V75H102.5V60ZM108 75H145V90H160V70C160 64.4772 155.523 60 150 60H108V75Z" fill="black"/>
</svg>
