<svg width="190" height="220" viewBox="0 0 190 220" fill="none" xmlns="http://www.w3.org/2000/svg">
<path fill-rule="evenodd" clip-rule="evenodd" d="M0 0H190V180C190 202.091 172.091 220 150 220H40C17.9086 220 0 202.091 0 180V0ZM15 15H175V180C175 193.807 163.807 205 150 205H40C26.1929 205 15 193.807 15 180V15ZM30 44.5H87.5V60H40C34.4771 60 30 64.4771 30 70V180C30 185.523 34.4772 190 40 190H150C155.523 190 160 185.523 160 180V160H145V175H45V75H87.5V170H102.5V75V60V44.5H160.004V29.5H30V44.5ZM145 75H108V60H150C155.523 60 160 64.4771 160 70V90H145V75Z" fill="#60574E"/>
</svg>
