<svg width="116" height="116" viewBox="0 0 116 116" fill="none" xmlns="http://www.w3.org/2000/svg">
<path d="M58 0C26 0 0 26 0 58C0 90 26 116 58 116C90 116 116 90 116 58C116 26 90 0 58 0ZM58 6C86.7 6 110 29.3 110 58C110 86.7 86.7 110 58 110C29.3 110 6 86.7 6 58C6 29.3 29.3 6 58 6ZM79.0371 42.9492C78.2746 42.9742 77.5004 43.3004 76.9004 43.9004L56 65.5996L45.0996 53.9004C43.9996 52.7004 42.1004 52.5992 40.9004 53.6992C39.7004 54.7992 39.5992 56.7004 40.6992 57.9004L53.8008 72C54.4008 72.6 55.1 73 56 73C56.8 73 57.5992 72.6996 58.1992 72.0996L81.1992 48C82.2992 46.8 82.2996 44.9008 81.0996 43.8008C80.5496 43.2008 79.7996 42.9242 79.0371 42.9492Z" fill="#FFD152"/>
</svg>
