<svg width="102" height="102" viewBox="0 0 102 102" fill="none" xmlns="http://www.w3.org/2000/svg">
<path d="M51 0.5C23.2 0.5 0.5 23.2 0.5 51C0.5 78.8 23.2 101.5 51 101.5C78.8 101.5 101.5 78.8 101.5 51C101.5 23.2 78.8 0.5 51 0.5ZM51 6.5C75.5 6.5 95.5 26.5 95.5 51C95.5 75.5 75.5 95.5 51 95.5C26.5 95.5 6.5 75.5 6.5 51C6.5 26.5 26.5 6.5 51 6.5ZM51 18C49.3 18 48 19.3 48 21V45.8008C46.2 46.8008 45 48.8 45 51C45 54.3 47.7 57 51 57C53.2 57 55.1992 55.8 56.1992 54H71C72.7 54 74 52.7 74 51C74 49.3 72.7 48 71 48H56.1992C55.6992 47.1 54.9 46.3008 54 45.8008V21C54 19.3 52.7 18 51 18Z" fill="#FFD152"/>
</svg>
