<svg width="998" height="220" viewBox="0 0 998 220" fill="none" xmlns="http://www.w3.org/2000/svg">
<path d="M0 0H190V180C190 202.091 172.091 220 150 220H40C17.9086 220 0 202.091 0 180V0Z" fill="white"/>
<path d="M30 37H160.004" stroke="black" stroke-width="15"/>
<path d="M95 44L95 170" stroke="black" stroke-width="15"/>
<path fill-rule="evenodd" clip-rule="evenodd" d="M102.5 60H40C34.4772 60 30 64.4772 30 70V180C30 185.523 34.4772 190 40 190H150C155.523 190 160 185.523 160 180V160H145V175H45V75H102.5V60ZM108 75H145V90H160V70C160 64.4772 155.523 60 150 60H108V75Z" fill="black"/>
<path d="M252.72 149C251.92 149 251.24 148.72 250.68 148.16C250.12 147.6 249.84 146.92 249.84 146.12V79.76H227.64C226.84 79.76 226.16 79.48 225.6 78.92C225.04 78.36 224.76 77.68 224.76 76.88V68C224.76 67.12 225.04 66.4 225.6 65.84C226.16 65.28 226.84 65 227.64 65H288.84C289.72 65 290.44 65.28 291 65.84C291.56 66.4 291.84 67.12 291.84 68V76.88C291.84 77.68 291.56 78.36 291 78.92C290.44 79.48 289.72 79.76 288.84 79.76H266.76V146.12C266.76 146.92 266.48 147.6 265.92 148.16C265.36 148.72 264.64 149 263.76 149H252.72ZM312.896 149C312.096 149 311.416 148.72 310.856 148.16C310.296 147.6 310.016 146.92 310.016 146.12V68C310.016 67.12 310.296 66.4 310.856 65.84C311.416 65.28 312.096 65 312.896 65H365.696C366.576 65 367.296 65.28 367.856 65.84C368.416 66.4 368.696 67.12 368.696 68V75.92C368.696 76.72 368.416 77.4 367.856 77.96C367.296 78.52 366.576 78.8 365.696 78.8H326.216V100.04H363.056C363.936 100.04 364.656 100.32 365.216 100.88C365.776 101.36 366.056 102.04 366.056 102.92V110.36C366.056 111.24 365.776 111.96 365.216 112.52C364.656 113 363.936 113.24 363.056 113.24H326.216V135.2H366.656C367.536 135.2 368.256 135.48 368.816 136.04C369.376 136.6 369.656 137.32 369.656 138.2V146.12C369.656 146.92 369.376 147.6 368.816 148.16C368.256 148.72 367.536 149 366.656 149H312.896ZM385.985 149C385.265 149 384.665 148.76 384.185 148.28C383.705 147.8 383.465 147.2 383.465 146.48C383.465 146.24 383.505 146 383.585 145.76C383.665 145.52 383.745 145.28 383.825 145.04L410.705 106.16L385.505 68.96C385.265 68.48 385.145 68 385.145 67.52C385.145 66.8 385.385 66.2 385.865 65.72C386.345 65.24 386.905 65 387.545 65H399.905C400.865 65 401.625 65.24 402.185 65.72C402.745 66.2 403.225 66.72 403.625 67.28L421.265 93.2L439.025 67.28C439.345 66.72 439.785 66.2 440.345 65.72C440.985 65.24 441.785 65 442.745 65H454.385C455.105 65 455.705 65.24 456.185 65.72C456.665 66.2 456.905 66.8 456.905 67.52C456.905 68 456.745 68.48 456.425 68.96L431.345 106.16L458.225 145.04C458.385 145.28 458.505 145.52 458.585 145.76C458.665 146 458.705 146.24 458.705 146.48C458.705 147.2 458.425 147.8 457.865 148.28C457.385 148.76 456.825 149 456.185 149H443.465C442.505 149 441.745 148.76 441.185 148.28C440.625 147.8 440.185 147.32 439.865 146.84L420.665 119.72L401.825 146.84C401.505 147.32 401.065 147.8 400.505 148.28C399.945 148.76 399.145 149 398.105 149H385.985ZM508.518 150.2C501.078 150.2 494.758 148.92 489.558 146.36C484.438 143.72 480.518 140 477.798 135.2C475.078 130.32 473.558 124.48 473.238 117.68C473.158 114.4 473.118 110.88 473.118 107.12C473.118 103.36 473.158 99.76 473.238 96.32C473.558 89.6 475.078 83.8 477.798 78.92C480.598 74.04 484.558 70.32 489.678 67.76C494.878 65.12 501.158 63.8 508.518 63.8C513.958 63.8 518.838 64.52 523.158 65.96C527.478 67.4 531.158 69.4 534.198 71.96C537.238 74.44 539.598 77.36 541.278 80.72C542.958 84.08 543.838 87.72 543.918 91.64C543.998 92.36 543.758 92.96 543.198 93.44C542.718 93.92 542.118 94.16 541.398 94.16H529.998C529.118 94.16 528.398 93.96 527.838 93.56C527.278 93.08 526.878 92.32 526.638 91.28C525.358 86 523.158 82.4 520.038 80.48C516.918 78.56 513.038 77.6 508.398 77.6C503.038 77.6 498.758 79.12 495.558 82.16C492.358 85.12 490.638 90.04 490.398 96.92C490.158 103.48 490.158 110.2 490.398 117.08C490.638 123.96 492.358 128.92 495.558 131.96C498.758 134.92 503.038 136.4 508.398 136.4C513.038 136.4 516.918 135.44 520.038 133.52C523.158 131.52 525.358 127.92 526.638 122.72C526.878 121.6 527.278 120.84 527.838 120.44C528.398 120.04 529.118 119.84 529.998 119.84H541.398C542.118 119.84 542.718 120.08 543.198 120.56C543.758 121.04 543.998 121.64 543.918 122.36C543.838 126.28 542.958 129.92 541.278 133.28C539.598 136.64 537.238 139.6 534.198 142.16C531.158 144.64 527.478 146.6 523.158 148.04C518.838 149.48 513.958 150.2 508.518 150.2ZM567.029 149C566.229 149 565.549 148.72 564.989 148.16C564.429 147.6 564.149 146.92 564.149 146.12V68C564.149 67.12 564.429 66.4 564.989 65.84C565.549 65.28 566.229 65 567.029 65H619.829C620.709 65 621.429 65.28 621.989 65.84C622.549 66.4 622.829 67.12 622.829 68V75.92C622.829 76.72 622.549 77.4 621.989 77.96C621.429 78.52 620.709 78.8 619.829 78.8H580.349V100.04H617.189C618.069 100.04 618.789 100.32 619.349 100.88C619.909 101.36 620.189 102.04 620.189 102.92V110.36C620.189 111.24 619.909 111.96 619.349 112.52C618.789 113 618.069 113.24 617.189 113.24H580.349V135.2H620.789C621.669 135.2 622.389 135.48 622.949 136.04C623.509 136.6 623.789 137.32 623.789 138.2V146.12C623.789 146.92 623.509 147.6 622.949 148.16C622.389 148.72 621.669 149 620.789 149H567.029ZM647.678 149C646.878 149 646.198 148.72 645.638 148.16C645.078 147.6 644.798 146.92 644.798 146.12V68C644.798 67.12 645.078 66.4 645.638 65.84C646.198 65.28 646.878 65 647.678 65H679.838C686.078 65 691.518 66 696.158 68C700.798 69.92 704.398 72.88 706.958 76.88C709.518 80.8 710.798 85.72 710.798 91.64C710.798 97.64 709.518 102.6 706.958 106.52C704.398 110.36 700.798 113.24 696.158 115.16C691.518 117.08 686.078 118.04 679.838 118.04H661.958V146.12C661.958 146.92 661.678 147.6 661.118 148.16C660.638 148.72 659.958 149 659.078 149H647.678ZM661.718 104.72H679.238C683.878 104.72 687.438 103.64 689.918 101.48C692.398 99.24 693.638 95.96 693.638 91.64C693.638 87.64 692.478 84.44 690.158 82.04C687.838 79.56 684.198 78.32 679.238 78.32H661.718V104.72ZM732.779 149C731.979 149 731.299 148.72 730.739 148.16C730.179 147.6 729.899 146.92 729.899 146.12V68C729.899 67.12 730.179 66.4 730.739 65.84C731.299 65.28 731.979 65 732.779 65H767.579C774.059 65 779.339 66 783.419 68C787.499 69.92 790.499 72.6 792.419 76.04C794.419 79.48 795.419 83.48 795.419 88.04C795.419 91.08 794.859 93.76 793.739 96.08C792.699 98.32 791.379 100.16 789.779 101.6C788.259 103.04 786.739 104.16 785.219 104.96C788.339 106.4 791.099 108.8 793.499 112.16C795.899 115.52 797.099 119.52 797.099 124.16C797.099 128.96 796.019 133.24 793.859 137C791.699 140.76 788.499 143.72 784.259 145.88C780.019 147.96 774.779 149 768.539 149H732.779ZM746.579 136.28H766.619C770.939 136.28 774.219 135.12 776.459 132.8C778.699 130.4 779.819 127.52 779.819 124.16C779.819 120.64 778.659 117.72 776.339 115.4C774.099 113.08 770.859 111.92 766.619 111.92H746.579V136.28ZM746.579 99.44H765.419C769.659 99.44 772.819 98.44 774.899 96.44C777.059 94.36 778.139 91.68 778.139 88.4C778.139 85.04 777.059 82.44 774.899 80.6C772.819 78.68 769.659 77.72 765.419 77.72H746.579V99.44ZM821.045 149C820.245 149 819.565 148.72 819.005 148.16C818.445 147.6 818.165 146.88 818.165 146V68C818.165 67.12 818.445 66.4 819.005 65.84C819.565 65.28 820.285 65 821.165 65H831.965C832.845 65 833.525 65.28 834.005 65.84C834.565 66.4 834.845 67.12 834.845 68V123.08L874.325 66.92C874.645 66.52 875.085 66.12 875.645 65.72C876.205 65.24 876.925 65 877.805 65H887.765C888.565 65 889.245 65.28 889.805 65.84C890.365 66.4 890.645 67.12 890.645 68V146.12C890.645 146.92 890.365 147.6 889.805 148.16C889.245 148.72 888.565 149 887.765 149H876.965C876.085 149 875.365 148.72 874.805 148.16C874.245 147.6 873.965 146.92 873.965 146.12V92.12L834.605 147.08C834.365 147.4 833.965 147.8 833.405 148.28C832.845 148.76 832.085 149 831.125 149H821.045ZM947.737 150.2C940.297 150.2 933.977 148.92 928.777 146.36C923.657 143.72 919.737 140 917.017 135.2C914.297 130.32 912.777 124.48 912.457 117.68C912.377 114.4 912.337 110.88 912.337 107.12C912.337 103.36 912.377 99.76 912.457 96.32C912.777 89.6 914.297 83.8 917.017 78.92C919.817 74.04 923.777 70.32 928.897 67.76C934.097 65.12 940.377 63.8 947.737 63.8C953.177 63.8 958.057 64.52 962.377 65.96C966.697 67.4 970.377 69.4 973.417 71.96C976.457 74.44 978.817 77.36 980.497 80.72C982.177 84.08 983.057 87.72 983.137 91.64C983.217 92.36 982.977 92.96 982.417 93.44C981.937 93.92 981.337 94.16 980.617 94.16H969.217C968.337 94.16 967.617 93.96 967.057 93.56C966.497 93.08 966.097 92.32 965.857 91.28C964.577 86 962.377 82.4 959.257 80.48C956.137 78.56 952.257 77.6 947.617 77.6C942.257 77.6 937.977 79.12 934.777 82.16C931.577 85.12 929.857 90.04 929.617 96.92C929.377 103.48 929.377 110.2 929.617 117.08C929.857 123.96 931.577 128.92 934.777 131.96C937.977 134.92 942.257 136.4 947.617 136.4C952.257 136.4 956.137 135.44 959.257 133.52C962.377 131.52 964.577 127.92 965.857 122.72C966.097 121.6 966.497 120.84 967.057 120.44C967.617 120.04 968.337 119.84 969.217 119.84H980.617C981.337 119.84 981.937 120.08 982.417 120.56C982.977 121.04 983.217 121.64 983.137 122.36C983.057 126.28 982.177 129.92 980.497 133.28C978.817 136.64 976.457 139.6 973.417 142.16C970.377 144.64 966.697 146.6 962.377 148.04C958.057 149.48 953.177 150.2 947.737 150.2Z" fill="white"/>
</svg>
